<svg width="25" height="19" viewBox="0 0 25 19" fill="none" xmlns="http://www.w3.org/2000/svg">
<path d="M13.9163 0.506297C14.2512 0.182115 14.7053 0 15.1788 0C15.6523 0 16.1064 0.182115 16.4413 0.506297L24.4772 8.28787C24.8119 8.61215 25 9.05191 25 9.51044C25 9.96897 24.8119 10.4087 24.4772 10.733L16.4413 18.5146C16.1045 18.8296 15.6534 19.0039 15.1852 18.9999C14.717 18.996 14.2691 18.8141 13.938 18.4935C13.6069 18.1729 13.4191 17.7392 13.4151 17.2858C13.411 16.8324 13.591 16.3956 13.9163 16.0694L18.7503 11.2397H1.78574C1.31213 11.2397 0.857923 11.0575 0.523032 10.7332C0.18814 10.4089 0 9.96906 0 9.51044C0 9.05182 0.18814 8.61198 0.523032 8.28768C0.857923 7.96339 1.31213 7.7812 1.78574 7.7812H18.7503L13.9163 2.95144C13.5815 2.62716 13.3934 2.1874 13.3934 1.72887C13.3934 1.27034 13.5815 0.830577 13.9163 0.506297Z" fill="#F7F7F7"/>
</svg>
