<svg width="25" height="19" viewBox="0 0 25 19" fill="none" xmlns="http://www.w3.org/2000/svg">
<path d="M11.0837 18.4937C10.7488 18.8179 10.2947 19 9.8212 19C9.34768 19 8.89355 18.8179 8.55868 18.4937L0.52284 10.7121C0.188066 10.3879 0 9.94809 0 9.48956C0 9.03103 0.188066 8.59127 0.52284 8.26699L8.55868 0.485418C8.89547 0.170424 9.34655 -0.00387383 9.81477 6.67572e-05C10.283 0.00400543 10.7309 0.185867 11.062 0.506483C11.3931 0.827097 11.5809 1.26081 11.5849 1.71421C11.589 2.16761 11.409 2.60442 11.0837 2.93056L6.24971 7.76032H23.2143C23.6879 7.76032 24.1421 7.94251 24.477 8.2668C24.8119 8.5911 25 9.03094 25 9.48956C25 9.94818 24.8119 10.388 24.477 10.7123C24.1421 11.0366 23.6879 11.2188 23.2143 11.2188H6.24971L11.0837 16.0486C11.4185 16.3728 11.6066 16.8126 11.6066 17.2711C11.6066 17.7297 11.4185 18.1694 11.0837 18.4937Z" fill="#F7F7F7"/>
</svg>
